<?xml version="1.0" encoding="utf-8"?>
<!-- Generator: Adobe Illustrator 16.0.0, SVG Export Plug-In . SVG Version: 6.00 Build 0)  -->
<!DOCTYPE svg PUBLIC "-//W3C//DTD SVG 1.1//EN" "http://www.w3.org/Graphics/SVG/1.1/DTD/svg11.dtd">
<svg version="1.1" id="Calque_1" xmlns="http://www.w3.org/2000/svg" xmlns:xlink="http://www.w3.org/1999/xlink" x="0px" y="0px"
	 width="12px" height="12px" viewBox="0 0 12 12" enable-background="new 0 0 12 12" xml:space="preserve">
<g id="A" display="none">
	<path display="inline" fill="#E42322" d="M-145.879,132.389c1.559,0,3.298-1.188,3.863-2.641l16.066-41.219
		c0.566-1.452,1.487-1.45,2.047,0.005l15.842,41.209c0.56,1.455,2.293,2.646,3.852,2.646h13.454c1.56,0,2.341-1.176,1.736-2.613
		l-25.552-60.773c-0.604-1.438-2.375-2.613-3.934-2.613h-12.456c-1.56,0-3.335,1.174-3.946,2.607l-25.902,60.785
		c-0.611,1.434,0.164,2.607,1.724,2.607H-145.879z"/>
</g>
<g id="A_1_">
	<path fill="#E42322" d="M2.489,11.838c0.313,0,0.653-0.24,0.758-0.534l2.562-7.198c0.104-0.294,0.275-0.293,0.378,0.001
		l2.528,7.196c0.103,0.295,0.442,0.535,0.755,0.535h1.972c0.313,0,0.476-0.238,0.364-0.529L7.705,0.634
		C7.594,0.343,7.247,0.105,6.935,0.105h-1.81c-0.313,0-0.66,0.238-0.773,0.528L0.197,11.31c-0.113,0.291,0.049,0.528,0.361,0.528
		H2.489z"/>
</g>
</svg>
